<svg id="logo" xmlns="http://www.w3.org/2000/svg" xmlns:xlink="http://www.w3.org/1999/xlink" width="108" height="35.647" viewBox="0 0 108 35.647">
  <defs>
    <clipPath id="clip-path">
      <path id="Path_3" data-name="Path 3" d="M28.838-29.222a4.174,4.174,0,0,1-3.111-1.387L12.487-45.391,8.077-33.47a4.172,4.172,0,0,1-5.349,2.459,4.141,4.141,0,0,1-2.47-5.324L7.066-54.742A4.161,4.161,0,0,1,10.2-57.382a4.177,4.177,0,0,1,3.887,1.314L24.814-44.091l.223-16.686a4.16,4.16,0,0,1,4.221-4.091,4.156,4.156,0,0,1,4.11,4.2L33-33.314a4.148,4.148,0,0,1-2.708,3.829,4.178,4.178,0,0,1-1.457.262" transform="translate(0 64.869)" fill="#1378e8" clip-rule="evenodd"/>
    </clipPath>
    <clipPath id="clip-path-2">
      <path id="Path_2" data-name="Path 2" d="M0-28.6H108.083V-65H0Z" transform="translate(0 65)" fill="#1378e8"/>
    </clipPath>
    <clipPath id="clip-path-3">
      <path id="Path_6" data-name="Path 6" d="M71.014-45.3a1.684,1.684,0,0,1,.476-1.212,1.668,1.668,0,0,1,1.263-.5,1.786,1.786,0,0,1,1.241.45,1.611,1.611,0,0,1,.5,1.258v4.985l5.7-6.047a2.65,2.65,0,0,1,.522-.427,1.475,1.475,0,0,1,.823-.219,1.751,1.751,0,0,1,1.194.461,1.53,1.53,0,0,1,.522,1.2,1.5,1.5,0,0,1-.277.865,7.468,7.468,0,0,1-.858.981L77.738-39.21l5.357,5.562a5.79,5.79,0,0,1,.694.819,1.6,1.6,0,0,1,.279.935,1.381,1.381,0,0,1-.544,1.2,2.113,2.113,0,0,1-1.264.393,1.479,1.479,0,0,1-.892-.278,6.024,6.024,0,0,1-.871-.807l-6-6.462v5.885a1.627,1.627,0,0,1-.476,1.166,1.666,1.666,0,0,1-1.263.5,1.784,1.784,0,0,1-1.241-.45,1.551,1.551,0,0,1-.5-1.212Z" transform="translate(-71.014 47.01)" fill="#171c1f" clip-rule="evenodd"/>
    </clipPath>
    <clipPath id="clip-path-4">
      <path id="Path_5" data-name="Path 5" d="M0-28.6H108.083V-65H0Z" transform="translate(0 65)" fill="#171c1f"/>
    </clipPath>
    <clipPath id="clip-path-5">
      <path id="Path_9" data-name="Path 9" d="M103.04-33.009a4.282,4.282,0,0,0,2.015-.445,4.286,4.286,0,0,0,1.421-1.182,5.012,5.012,0,0,0,.85-1.709,7.353,7.353,0,0,0,.281-2.048,7.151,7.151,0,0,0-.292-2.037,5.208,5.208,0,0,0-.862-1.72,4.285,4.285,0,0,0-1.421-1.182,4.237,4.237,0,0,0-1.991-.445,4.233,4.233,0,0,0-1.991.445,4.258,4.258,0,0,0-1.421,1.182,5.155,5.155,0,0,0-.862,1.72,7.156,7.156,0,0,0-.292,2.037,7.354,7.354,0,0,0,.279,2.048,5.064,5.064,0,0,0,.85,1.709,4.274,4.274,0,0,0,1.421,1.182,4.288,4.288,0,0,0,2.016.445m0,3.23a8.444,8.444,0,0,1-3.388-.667,7.97,7.97,0,0,1-2.647-1.826A8.167,8.167,0,0,1,95.292-35a9.33,9.33,0,0,1-.606-3.394,9.334,9.334,0,0,1,.606-3.395,8.174,8.174,0,0,1,1.713-2.727,8.02,8.02,0,0,1,2.634-1.826,8.422,8.422,0,0,1,3.4-.667,8.263,8.263,0,0,1,3.363.679,8.055,8.055,0,0,1,2.647,1.85,8.471,8.471,0,0,1,1.724,2.739,9.033,9.033,0,0,1,.621,3.348A9.326,9.326,0,0,1,110.787-35a8.292,8.292,0,0,1-1.7,2.727,7.845,7.845,0,0,1-2.634,1.826,8.5,8.5,0,0,1-3.412.667" transform="translate(-94.686 47.01)" fill="#171c1f" clip-rule="evenodd"/>
    </clipPath>
    <clipPath id="clip-path-7">
      <path id="Path_12" data-name="Path 12" d="M126.879-45.195a1.745,1.745,0,0,1,.5-1.35,1.787,1.787,0,0,1,1.257-.465,1.785,1.785,0,0,1,1.258.465,1.746,1.746,0,0,1,.505,1.35v11.682h4.182a1.85,1.85,0,0,1,.776.151,1.466,1.466,0,0,1,.529.4,1.633,1.633,0,0,1,.293.535,1.931,1.931,0,0,1,.1.593,1.766,1.766,0,0,1-.482,1.059,1.553,1.553,0,0,1-1.21.477h-5.875a1.762,1.762,0,0,1-1.35-.512,1.956,1.956,0,0,1-.481-1.4Z" transform="translate(-126.879 47.01)" fill="#171c1f" clip-rule="evenodd"/>
    </clipPath>
    <clipPath id="clip-path-9">
      <path id="Path_15" data-name="Path 15" d="M151.114-36.8h4.6l-2.249-6.638h-.049Zm-.266-8.309a3.245,3.245,0,0,1,.99-1.35,2.464,2.464,0,0,1,1.6-.549,2.465,2.465,0,0,1,1.621.538,3.218,3.218,0,0,1,.968,1.362l4.741,12.451a2.075,2.075,0,0,1,.157.5,2.46,2.46,0,0,1,.036.343,1.363,1.363,0,0,1-.5,1.087,1.745,1.745,0,0,1-1.172.424,1.8,1.8,0,0,1-1.173-.332,1.976,1.976,0,0,1-.593-.858l-.726-2.152h-6.724l-.726,2.129a2.06,2.06,0,0,1-.592.87,1.715,1.715,0,0,1-1.15.343,1.87,1.87,0,0,1-1.259-.458,1.45,1.45,0,0,1-.531-1.145,1.538,1.538,0,0,1,.062-.469,1.709,1.709,0,0,1,.108-.286Z" transform="translate(-145.816 47.01)" fill="#171c1f" clip-rule="evenodd"/>
    </clipPath>
    <clipPath id="clip-path-11">
      <path id="Path_18" data-name="Path 18" d="M177.126-38.136l-4.4-6.118a1.761,1.761,0,0,1-.325-1.035,1.673,1.673,0,0,1,.465-1.185,1.587,1.587,0,0,1,1.21-.494,1.652,1.652,0,0,1,1.441.69l3.348,4.807,3.35-4.807a1.649,1.649,0,0,1,1.441-.69,1.587,1.587,0,0,1,1.209.494,1.667,1.667,0,0,1,.465,1.185,1.752,1.752,0,0,1-.325,1.035l-4.395,6.118V-32a1.831,1.831,0,0,1-.407,1.162,1.6,1.6,0,0,1-1.338.518,1.6,1.6,0,0,1-1.336-.518A1.829,1.829,0,0,1,177.126-32Z" transform="translate(-172.404 46.967)" fill="#171c1f" clip-rule="evenodd"/>
    </clipPath>
  </defs>
  <g id="Group_2" data-name="Group 2" clip-path="url(#clip-path)">
    <g id="Group_1" data-name="Group 1" transform="translate(0 -0.072)" clip-path="url(#clip-path-2)">
      <path id="Path_1" data-name="Path 1" d="M-5-28.708H33.883V-69.869H-5Z" transform="translate(2.243 67.184)" fill="#1378e8"/>
    </g>
  </g>
  <g id="Group_4" data-name="Group 4" transform="translate(39.161 9.848)" clip-path="url(#clip-path-3)">
    <g id="Group_3" data-name="Group 3" transform="translate(-39.161 -9.921)" clip-path="url(#clip-path-4)">
      <path id="Path_4" data-name="Path 4" d="M66.014-29.787H84.582V-52.01H66.014Z" transform="translate(-29.611 59.173)" fill="#171c1f"/>
    </g>
  </g>
  <g id="Group_6" data-name="Group 6" transform="translate(52.214 9.848)" clip-path="url(#clip-path-5)">
    <g id="Group_5" data-name="Group 5" transform="translate(-52.214 -9.921)" clip-path="url(#clip-path-4)">
      <path id="Path_7" data-name="Path 7" d="M89.686-29.265h22.223V-52.01H89.686Z" transform="translate(-40.229 59.173)" fill="#171c1f"/>
    </g>
  </g>
  <g id="Group_8" data-name="Group 8" transform="translate(69.967 9.848)" clip-path="url(#clip-path-7)">
    <g id="Group_7" data-name="Group 7" transform="translate(-69.967 -9.921)" clip-path="url(#clip-path-4)">
      <path id="Path_10" data-name="Path 10" d="M121.879-29.787h14.913V-52.01H121.879Z" transform="translate(-54.67 59.173)" fill="#171c1f"/>
    </g>
  </g>
  <g id="Group_10" data-name="Group 10" transform="translate(80.41 9.848)" clip-path="url(#clip-path-9)">
    <g id="Group_9" data-name="Group 9" transform="translate(-80.41 -9.921)" clip-path="url(#clip-path-4)">
      <path id="Path_13" data-name="Path 13" d="M140.816-29.787h20.656V-52.01H140.816Z" transform="translate(-63.164 59.173)" fill="#171c1f"/>
    </g>
  </g>
  <g id="Group_12" data-name="Group 12" transform="translate(95.071 9.872)" clip-path="url(#clip-path-11)">
    <g id="Group_11" data-name="Group 11" transform="translate(-95.071 -9.944)" clip-path="url(#clip-path-4)">
      <path id="Path_16" data-name="Path 16" d="M167.4-29.8h18.444V-51.967H167.4Z" transform="translate(-75.09 59.154)" fill="#171c1f"/>
    </g>
  </g>
</svg>
