<svg width="121" height="28" viewBox="0 0 121 28" fill="none" xmlns="http://www.w3.org/2000/svg">
<path d="M96.84 13.8699L94.6855 14.0891L95.2117 19.2531L93.9432 19.3823L93.4169 14.2183L91.2623 14.4376L91.1426 13.2631L96.7203 12.6954L96.84 13.8699Z" fill="#0075EB"/>
<path d="M100.028 17.2277L99.885 15.8201C99.5541 15.4394 99.1416 15.3684 98.7405 15.4092C98.041 15.4804 97.613 16.0892 97.6814 16.7602C97.7487 17.4219 98.2908 17.932 98.9903 17.8608C99.3914 17.8199 99.7811 17.6673 100.028 17.2277ZM100.952 14.1763L101.405 18.6227L100.183 18.747L100.158 18.4954C99.8354 18.7541 99.4111 18.9386 98.9168 18.9889C97.6856 19.1143 96.5905 18.1709 96.4594 16.8845C96.3273 15.5889 97.2096 14.4443 98.441 14.319C98.9352 14.2687 99.3879 14.3639 99.7559 14.5524L99.7302 14.3007L100.952 14.1763Z" fill="#0075EB"/>
<path d="M104.187 16.6066L103.521 17.4655L103.616 18.3976L102.394 18.5221L101.72 11.9039L102.942 11.7795L103.358 15.8623L104.945 13.77L106.493 13.6124L104.937 15.6356L107.16 18.037L105.584 18.1974L104.187 16.6066Z" fill="#0075EB"/>
<path d="M109.208 16.9432C109.675 16.8958 109.989 16.7414 109.963 16.4897C109.945 16.3127 109.781 16.1787 109.467 16.1541L108.489 16.0841C107.825 16.0387 107.127 15.7519 107.041 14.913C106.948 13.9994 107.666 13.3707 108.795 13.2558C109.597 13.1741 110.683 13.2897 110.916 14.5562L109.787 14.671C109.718 14.2731 109.323 14.1815 108.894 14.2252C108.427 14.2727 108.22 14.4539 108.241 14.6684C108.258 14.8361 108.4 15.0195 108.836 15.0504L109.652 15.0993C110.354 15.1502 111.03 15.4015 111.118 16.2592C111.218 17.2473 110.41 17.8193 109.281 17.9342C108.302 18.0338 107.276 17.771 107.051 16.4847L108.18 16.3792C108.306 16.875 108.686 16.9964 109.208 16.9432Z" fill="#0075EB"/>
<path d="M112.94 12.9563L113.393 17.4026L112.171 17.527L111.718 13.0807L112.94 12.9563ZM111.416 11.5103C111.373 11.0907 111.669 10.75 112.088 10.7072C112.499 10.6655 112.866 10.9389 112.909 11.3584C112.951 11.7686 112.646 12.1103 112.236 12.1521C111.816 12.1948 111.458 11.9205 111.416 11.5103Z" fill="#0075EB"/>
<path d="M117.861 16.8631C117.467 17.0633 117.135 17.1347 116.809 17.168C115.615 17.2895 114.867 16.6123 114.751 15.475L114.583 13.8251L113.632 13.922L113.527 12.8965L114.479 12.7997L114.314 11.187L115.536 11.0627L115.701 12.6754L117.333 12.5092L117.437 13.5347L115.805 13.7008L115.973 15.3507C116.026 15.8726 116.377 16.0724 116.834 16.0258C117.113 15.9974 117.366 15.887 117.58 15.7709L117.861 16.8631Z" fill="#0075EB"/>
<path d="M119.382 18.5747L92.2924 21.3598C91.6011 21.4322 90.9329 21.1344 90.5509 20.5838L88.3702 17.4407C88.0347 16.9572 87.971 16.3451 88.1997 15.8029L89.6855 12.2792C89.9458 11.6618 90.5375 11.2337 91.2294 11.1619L118.34 8.37443C118.362 8.37207 118.384 8.37098 118.406 8.37098C118.551 8.37098 118.69 8.42031 118.804 8.51277C118.934 8.6192 119.016 8.77015 119.033 8.93773L119.945 17.8836C119.98 18.2291 119.727 18.5392 119.382 18.5747ZM120.582 17.8188L119.671 8.87284C119.636 8.53482 119.472 8.23038 119.208 8.01593C118.945 7.80119 118.612 7.70233 118.275 7.73689L91.1633 10.5244C90.2384 10.6204 89.4457 11.1975 89.0947 12.0304L87.6087 15.554C87.4902 15.8352 87.429 16.1299 87.4232 16.4238C86.8107 16.6128 85.5938 16.5594 84.9711 16.0925C84.6558 15.8561 84.5442 15.5504 84.6303 15.158C85.0638 13.1802 81.8401 11.7628 81.7027 11.7033L81.4482 12.2915C82.2496 12.6378 84.2708 13.8029 84.0038 15.0209C83.8645 15.6565 84.0714 16.2192 84.5864 16.6052C85.1218 17.0066 85.8956 17.1703 86.5917 17.1703C86.9243 17.1703 87.2389 17.1326 87.5016 17.0658C87.5706 17.3261 87.6842 17.5766 87.8432 17.8059L90.0239 20.949C90.4887 21.6189 91.2622 22.0114 92.0879 22.0114C92.1776 22.0114 92.2679 22.0067 92.3584 21.9974L119.447 19.2123C120.144 19.1405 120.653 18.5153 120.582 17.8188Z" fill="#0075EB"/>
<path d="M25.8165 21.6681V3.20059C25.8165 1.43291 24.3827 0 22.6139 0C20.8452 0 19.4113 1.43291 19.4113 3.20059V16.3204L11.0189 6.91269C10.2572 6.05903 9.10307 5.66666 7.97813 5.88042C6.85359 6.09379 5.92343 6.88138 5.52785 7.95481L0.201574 22.4126C-0.420306 24.1008 0.444929 25.973 2.13402 26.5945C3.8232 27.2158 5.69653 26.3513 6.31841 24.6632L9.76811 15.2993L20.126 26.9103C20.7564 27.617 21.6474 28 22.5593 28C22.9413 28 23.3272 27.9328 23.6989 27.794C24.9583 27.3239 25.7997 26.1294 25.8175 24.786L25.8165 21.6681Z" fill="#0075EB"/>
<path d="M30.9111 9.23104C30.9111 8.84458 31.039 8.51651 31.2958 8.248C31.5514 7.98009 31.8915 7.84579 32.3162 7.84579C32.7159 7.84579 33.0496 7.96709 33.3193 8.21069C33.5869 8.45428 33.7212 8.79427 33.7212 9.23104V13.2757L38.3307 8.3698C38.4303 8.25775 38.5712 8.14245 38.7521 8.02341C38.933 7.90487 39.1551 7.84579 39.4173 7.84579C39.7801 7.84579 40.1008 7.97034 40.3825 8.21984C40.6631 8.46994 40.8039 8.79427 40.8039 9.19373C40.8039 9.44382 40.7291 9.67757 40.5796 9.89576C40.4291 10.1144 40.1984 10.3797 39.8863 10.6915L36.3439 14.1743L40.6728 18.6872C40.8982 18.9119 41.0845 19.1338 41.2339 19.3519C41.3846 19.5706 41.4593 19.8234 41.4593 20.1103C41.4593 20.5471 41.312 20.872 41.0194 21.0835C40.7249 21.2958 40.3847 21.4025 39.998 21.4025C39.7238 21.4025 39.4834 21.3272 39.2776 21.1773C39.0706 21.0278 38.8366 20.8096 38.5733 20.5222L33.7212 15.2791V20.054C33.7212 20.4162 33.5934 20.7312 33.3367 20.9997C33.081 21.2682 32.7408 21.4025 32.3162 21.4025C31.9165 21.4025 31.5817 21.2807 31.3131 21.0371C31.0444 20.7935 30.9111 20.466 30.9111 20.054V9.23104Z" fill="#181C1F"/>
<path d="M47.5297 18.9308C48.1287 18.9308 48.6476 18.8122 49.0842 18.5745C49.5207 18.3374 49.887 18.0225 50.1806 17.6289C50.4741 17.236 50.693 16.7801 50.8359 16.2621C50.9801 15.7447 51.0526 15.1985 51.0526 14.6241C51.0526 14.0622 50.9768 13.5193 50.8273 12.9947C50.6778 12.4707 50.4547 12.0117 50.1621 11.6187C49.8675 11.2252 49.5035 10.9102 49.0658 10.673C48.6282 10.436 48.1168 10.3175 47.5297 10.3175C46.9426 10.3175 46.4302 10.436 45.9936 10.673C45.556 10.9102 45.1898 11.2252 44.8973 11.6187C44.6027 12.0117 44.3816 12.4707 44.2321 12.9947C44.0826 13.5193 44.0068 14.0622 44.0068 14.6241C44.0068 15.1985 44.0783 15.7447 44.2224 16.2621C44.3664 16.7801 44.5853 17.236 44.8777 17.6289C45.1713 18.0225 45.5364 18.3374 45.9741 18.5745C46.4117 18.8122 46.9296 18.9308 47.5297 18.9308ZM47.5297 21.5144C46.5807 21.5144 45.7087 21.3364 44.9157 20.9807C44.1217 20.625 43.4413 20.1384 42.8737 19.5203C42.305 18.9026 41.864 18.1757 41.5521 17.3387C41.24 16.503 41.084 15.5974 41.084 14.6241C41.084 13.6503 41.24 12.7452 41.5521 11.9089C41.864 11.0726 42.305 10.345 42.8737 9.72738C43.4413 9.10923 44.1194 8.62254 44.9059 8.2669C45.6924 7.91135 46.5677 7.73324 47.5297 7.73324C48.4657 7.73324 49.3313 7.9145 50.1242 8.27615C50.9172 8.63829 51.5986 9.13139 52.1662 9.75554C52.735 10.3797 53.178 11.1099 53.4966 11.9462C53.815 12.7825 53.9754 13.6752 53.9754 14.6241C53.9754 15.5974 53.8182 16.503 53.5062 17.3387C53.1932 18.1757 52.7567 18.9026 52.1944 19.5203C51.6333 20.1384 50.9552 20.625 50.1621 20.9807C49.3691 21.3364 48.4917 21.5144 47.5297 21.5144Z" fill="#181C1F"/>
<path d="M55.0869 9.30624C55.0869 8.83205 55.2202 8.4699 55.4888 8.21981C55.7575 7.97031 56.0922 7.84576 56.4909 7.84576C56.8917 7.84576 57.2254 7.97031 57.494 8.21981C57.7627 8.4699 57.897 8.83205 57.897 9.30624V18.7056H61.2314C61.4687 18.7056 61.6756 18.7467 61.85 18.8274C62.0244 18.9091 62.1652 19.0146 62.2714 19.1456C62.3776 19.2767 62.4556 19.4206 62.5053 19.5766C62.5552 19.733 62.5812 19.8921 62.5812 20.054C62.5552 20.3663 62.4274 20.6499 62.1967 20.906C61.9659 21.162 61.6441 21.2898 61.2314 21.2898H56.5472C56.0857 21.2898 55.726 21.1528 55.4705 20.8778C55.2148 20.6034 55.0869 20.2288 55.0869 19.7547V9.30624Z" fill="#181C1F"/>
<path d="M67.7872 16.0846H71.347L69.605 10.6541H69.5671L67.7872 16.0846ZM67.5814 9.28736C67.7438 8.85049 67.9995 8.48244 68.3484 8.18253C68.6993 7.8832 69.111 7.73325 69.5855 7.73325C70.0849 7.73325 70.5042 7.87996 70.841 8.17327C71.1779 8.46669 71.4281 8.83809 71.5907 9.28736L75.2631 19.4737C75.3248 19.6232 75.366 19.7606 75.3843 19.8857C75.4028 20.0101 75.4125 20.1038 75.4125 20.1666C75.4125 20.5287 75.2847 20.8248 75.028 21.056C74.7723 21.2872 74.469 21.4025 74.1202 21.4025C73.7194 21.4025 73.4171 21.3115 73.2113 21.1307C73.0044 20.9498 72.8528 20.7161 72.752 20.4286L72.1897 18.6683H66.9812L66.419 20.4097C66.3193 20.6971 66.1666 20.9342 65.9608 21.1215C65.755 21.3088 65.457 21.4025 65.0702 21.4025C64.6954 21.4025 64.3704 21.2774 64.0953 21.0278C63.8212 20.7782 63.6836 20.466 63.6836 20.0914C63.6836 19.9414 63.6988 19.8137 63.7313 19.7075C63.7616 19.6015 63.7898 19.5235 63.8147 19.4737L67.5814 9.28736Z" fill="#181C1F"/>
<path d="M78.3173 15.036L74.7749 10.0548C74.6015 9.80535 74.5127 9.52444 74.5127 9.21261C74.5127 8.83806 74.6383 8.51649 74.8876 8.24798C75.1377 7.98007 75.4617 7.84577 75.8625 7.84577C76.3738 7.84577 76.7616 8.03255 77.0238 8.40709L79.7212 12.3207L82.4208 8.40709C82.683 8.03255 83.0686 7.84577 83.5821 7.84577C83.9808 7.84577 84.3057 7.98007 84.556 8.24798C84.8062 8.51649 84.9309 8.83806 84.9309 9.21261C84.9309 9.52444 84.8431 9.80535 84.6686 10.0548L81.1274 15.036V20.035C81.1274 20.3847 81.0179 20.6997 80.7991 20.9806C80.5814 21.2616 80.2217 21.4023 79.7212 21.4023C79.2229 21.4023 78.8633 21.2616 78.6444 20.9806C78.4256 20.6997 78.3173 20.3847 78.3173 20.035V15.036Z" fill="#181C1F"/>
</svg>
